<?xml version="1.0" standalone="no"?>
<!DOCTYPE svg PUBLIC "-//W3C//DTD SVG 20010904//EN"
 "http://www.w3.org/TR/2001/REC-SVG-20010904/DTD/svg10.dtd">
<svg version="1.0" xmlns="http://www.w3.org/2000/svg"
 width="205.000000pt" height="207.000000pt" viewBox="0 0 205.000000 207.000000"
 preserveAspectRatio="xMidYMid meet">

<g transform="translate(0.000000,207.000000) scale(0.100000,-0.100000)"
fill="#4472C4" stroke="none">
<path d="M960 2054 c-439 -41 -784 -322 -905 -738 -139 -480 95 -994 549
-1207 212 -99 448 -121 686 -62 132 32 186 78 204 172 13 69 -30 153 -97 188
-42 21 -121 20 -188 -3 -43 -15 -81 -19 -184 -18 -116 0 -138 3 -201 27 -113
43 -163 75 -250 161 -64 64 -90 99 -123 166 -129 263 -82 550 124 755 204 205
491 252 752 123 82 -40 199 -148 252 -233 67 -106 92 -195 106 -378 3 -38 10
-78 16 -90 55 -106 190 -135 279 -61 63 53 78 120 61 277 -27 251 -121 449
-295 623 -172 172 -374 268 -616 294 -52 5 -104 9 -115 8 -11 -1 -36 -3 -55
-4z"/>
<path d="M1390 868 c-96 -49 -127 -162 -71 -254 32 -52 417 -319 476 -330 73
-13 163 35 191 103 20 47 17 117 -6 163 -16 31 -58 66 -215 175 -107 75 -210
142 -230 150 -49 21 -94 19 -145 -7z"/>
</g>
</svg>
